<svg id="Capa_1" enable-background="new 0 0 512 512" height="512" viewBox="0 0 512 512" width="512" xmlns="http://www.w3.org/2000/svg"><g><path d="m497 482h-150.024l-20.889-65.802c10.095-4.148 19.741-9.17 28.853-14.96 6.14 17.553 22.859 30.183 42.482 30.183 24.813 0 45-20.187 45-45 0-19.618-12.624-36.335-30.172-42.478 11.228-17.665 19.54-37.354 24.263-58.386 5.9 2.846 12.511 4.442 19.488 4.442 24.813 0 45-20.187 45-45s-20.187-45-45-45c-6.978 0-13.59 1.596-19.49 4.443-4.722-21.031-13.033-40.718-24.258-58.384 6.21-2.157 12.038-5.709 16.989-10.661 17.546-17.545 17.546-46.094 0-63.64-17.546-17.546-46.096-17.543-63.64 0-4.952 4.951-8.504 10.78-10.661 16.989-17.665-11.225-37.353-19.536-58.384-24.258 2.847-5.898 4.443-12.51 4.443-19.488 0-24.813-20.187-45-45-45s-45 20.187-45 45c0 6.978 1.596 13.59 4.443 19.49-21.032 4.723-40.72 13.034-58.386 24.26-6.144-17.547-22.859-30.171-42.478-30.171-24.813 0-45 20.187-45 45 0 19.618 12.624 36.334 30.171 42.478-11.227 17.666-19.538 37.355-24.26 58.387-5.9-2.848-12.512-4.444-19.49-4.444-24.813 0-45 20.187-45 45s20.187 45 45 45c6.977 0 13.588-1.596 19.488-4.442 4.723 21.032 13.035 40.721 24.263 58.386-17.548 6.144-30.172 22.86-30.172 42.478 0 24.813 20.187 45 45 45 19.623 0 36.341-12.63 42.482-30.183 9.112 5.79 18.758 10.812 28.853 14.96l-20.89 65.801h-150.024c-8.284 0-15 6.716-15 15s6.716 15 15 15h482c8.284 0 15-6.716 15-15s-6.716-15-15-15zm-121.354-138.567-21.325-21.326c13.788-17.543 22.983-38.855 25.777-62.107h30.175c-3.04 31.5-15.541 60.274-34.627 83.433zm0-196.866c19.087 23.158 31.587 51.933 34.626 83.433h-30.175c-2.794-23.252-11.989-44.564-25.777-62.107zm-104.646-55.839c31.5 3.039 60.274 15.539 83.433 34.626l-21.325 21.326c-17.543-13.788-38.855-22.983-62.107-25.777v-30.175zm80 154.272c0 37.045-21.316 69.2-52.324 84.858l-15.55-48.982c10.85-8.224 17.874-21.243 17.874-35.876 0-24.813-20.187-45-45-45s-45 20.187-45 45c0 14.633 7.024 27.652 17.874 35.876l-15.55 48.982c-31.008-15.658-52.324-47.813-52.324-84.858 0-52.383 42.617-95 95-95s95 42.617 95 95zm-80.911 93.954c-4.599.686-9.303 1.046-14.089 1.046s-9.49-.36-14.089-1.046l14.089-44.379zm-14.089 31.046c7.945 0 15.716-.754 23.253-2.178l9.131 28.764c-10.448 2.23-21.28 3.414-32.384 3.414s-21.936-1.184-32.385-3.414l9.131-28.764c7.538 1.424 15.309 2.178 23.254 2.178zm-15-279.272v30.175c-23.252 2.794-44.564 11.989-62.107 25.777l-21.325-21.326c23.158-19.086 51.932-31.587 83.432-34.626zm-104.646 55.839 21.326 21.326c-13.788 17.543-22.983 38.855-25.777 62.107h-30.175c3.039-31.5 15.54-60.274 34.626-83.433zm0 196.866c-19.086-23.159-31.587-51.933-34.626-83.433h30.175c2.794 23.252 11.989 44.564 25.777 62.107zm21.213 21.213 21.325-21.326c7.74 6.083 16.215 11.27 25.265 15.411l-9.131 28.763c-13.592-5.839-26.192-13.562-37.459-22.848zm38.933 117.354 17.999-56.696c13.345 3.071 27.237 4.696 41.501 4.696s28.156-1.625 41.501-4.696l17.999 56.696zm111.343-123.269c9.05-4.141 17.525-9.328 25.265-15.411l21.325 21.326c-11.267 9.286-23.866 17.01-37.459 22.848z"/></g></svg>